<svg xmlns="http://www.w3.org/2000/svg" viewBox="0 0 129.96 150.07">
  <polygon points="127.96 111.4 127.96 38.67 64.98 2.31 2 38.67 2 111.4 64.98 147.76 127.96 111.4" style="fill: #5cade8"/>
  <path d="M65,150.07,0,112.55v-75L65,0l65,37.52v75ZM4,110.24l61,35.21,61-35.21V39.83L65,4.62,4,39.83Z" style="fill: #fff"/>
  <polygon points="111.05 4.89 71.84 27.25 64.98 23.28 20.15 49.17 20.15 100.93 30.39 106.84 31.35 112.44 40.08 112.44 64.98 126.81 109.81 100.93 109.81 49.17 104.16 45.9 101.06 44.02 101.43 41.27 105.33 38.95 111.05 4.89" style="fill: #5cade8"/>
  <path d="M65,129.12,39.54,114.44H29.67l-1.09-6.33-10.43-6V48L65,21l6.87,4L113.72,1.07l-6.57,39.12-3.87,2.3-.07.5,2,1.2L111.81,48v54.08ZM33,110.44h7.58L65,124.51l42.83-24.73V50.32l-4.65-2.69L98.9,45.05l.68-5,3.93-2.34,4.87-29L71.84,29.55l-6.86-4L22.15,50.32V99.78l10.05,5.8Z" style="fill: #fff"/>
  <polygon points="64.06 104.84 37.25 104.84 35.93 96.65 52.11 88.38 59.18 75.61 62.68 77.54 55.02 91.39 40.35 98.89 40.66 100.84 62.16 100.84 77.91 81.42 87.17 76.69 88.6 71 84.86 65.06 88.24 62.92 92.9 70.31 90.6 79.43 80.48 84.6 64.06 104.84" style="fill: #fff"/>
  <polygon points="72.23 67.29 70.23 63.82 82.05 56.99 82.86 52.13 64.53 62.72 62.52 59.26 88.2 44.43 85.69 59.51 72.23 67.29" style="fill: #fff"/>
  <polygon points="72.16 77.91 45.65 62.23 44.62 51.57 100.62 19.23 98.12 34.31 56.83 58.15 54.83 54.69 94.48 31.8 95.29 26.93 48.85 53.74 49.44 59.82 74.2 74.47 72.16 77.91" style="fill: #fff"/>
  <polygon points="64.53 62.72 62.52 59.26 88.26 44.39 89.07 39.53 56.83 58.15 54.83 54.69 94.4 31.82 91.9 46.91 64.53 62.72" style="fill: #fff"/>
  <polygon points="41.38 69.38 43.52 73.72 48.31 74.42 44.85 77.79 45.66 82.56 41.38 80.31 37.1 82.56 37.92 77.79 34.46 74.42 39.24 73.72 41.38 69.38" style="fill: #fff"/>
</svg>
